#N canvas 827 239 527 327 12;
#X obj 354 130 hsl 128 46 0 1 0 0 empty empty empty -2 -8 0 10 #dfdfdf #000000 #000000 0 1;
#X obj 314 326 tgl 19 0 empty empty empty 0 -8 0 10 #dfdfdf #000000 #000000 0 1;
#X text 340 328 <-- connection status;
#X obj 314 356 print status;
#X msg 123 124 connect localhost 6666;
#X obj 131 67 loadbang;
#X msg 324 242 /1/fader1 \$1;
#X obj 314 304 else/osc.send 6666;
#X obj 495 209 hsl 136 16 0 1 0 0 empty empty empty -2 -8 0 10 #dfdfdf #000000 #000000 0 1;
#X obj 563 279 hsl 136 16 0 1 0 0 empty empty empty -2 -8 0 10 #dfdfdf #000000 #000000 0 1;
#X msg 485 246 /1/fader2 \$1;
#X msg 559 311 /1/fader3 \$1;
#X obj 594 361 hsl 136 16 0 1 0 0 empty empty empty -2 -8 0 10 #dfdfdf #000000 #000000 0 1;
#X msg 590 393 /1/fader4 \$1;
#X obj 78 190 tgl 21 0 empty empty empty 0 -11 0 12 #fcfcfc #000000 #000000 0 1;
#X msg 74 294 /1/toggle1 \$1;
#X obj 76 260 tgl 21 0 empty empty empty 0 -11 0 12 #fcfcfc #000000 #000000 0 1;
#X text 122 194 <- Play midi notes;
#X obj 76 226 metro 250;
#X connect 0 0 6 0;
#X connect 1 0 3 0;
#X connect 4 0 7 0;
#X connect 5 0 4 0;
#X connect 6 0 7 0;
#X connect 7 0 1 0;
#X connect 8 0 10 0;
#X connect 9 0 11 0;
#X connect 10 0 7 0;
#X connect 11 0 7 0;
#X connect 12 0 13 0;
#X connect 13 0 7 0;
#X connect 14 0 18 0;
#X connect 15 0 7 0;
#X connect 16 0 15 0;
#X connect 18 0 16 0;
